<svg width="182" height="24" viewBox="0 0 182 24" fill="none" xmlns="http://www.w3.org/2000/svg">
<g clip-path="url(#clip0_377_6086)">
<path d="M55.8412 16.4796C56.4873 16.5084 57.1258 16.334 57.6629 15.9819C58.1523 15.6137 58.5122 15.1058 58.6927 14.5287C58.9336 13.7842 59.0467 13.0059 59.0273 12.2253V11.8874C59.0332 11.2769 58.9696 10.6677 58.8377 10.0709C58.7353 9.59156 58.5411 9.13547 58.2652 8.72667C58.0142 8.36864 57.6721 8.08066 57.2726 7.89107C56.8243 7.68934 56.3345 7.59113 55.8412 7.60405C55.1709 7.57059 54.5053 7.72973 53.9266 8.06182C53.4273 8.3936 53.0628 8.886 52.8967 9.45328C52.6699 10.2401 52.5659 11.0558 52.5882 11.8729V12.2362C52.5655 13.0402 52.6696 13.8428 52.8967 14.6159C53.0584 15.1842 53.4172 15.6799 53.9117 16.0182C54.4904 16.3503 55.1561 16.5095 55.8263 16.476L55.8412 16.4796ZM54.8077 19.2226C53.7629 19.248 52.732 18.9848 51.8335 18.4633C50.9581 17.897 50.2891 17.074 49.9225 16.1127C49.419 14.7979 49.1828 13.3996 49.2273 11.9964C49.1792 10.6119 49.4156 9.23201 49.9225 7.9383C50.2765 7.00463 50.9216 6.20319 51.7668 5.64713C52.612 5.09108 53.6145 4.8085 54.6329 4.8393C55.2283 4.83363 55.8218 4.90323 56.3989 5.04638C56.9083 5.17474 57.3895 5.39265 57.8191 5.68943C58.2294 5.97655 58.5823 6.33491 58.86 6.74665H59.0236V0.00732422H62.2878V18.8992H59.5887L59.3211 17.0827H59.1352C58.7071 17.7818 58.0772 18.3417 57.3246 18.6922C56.5431 19.0546 55.6875 19.2385 54.8225 19.2299" fill="black"/>
<path d="M68.4742 10.5688H74.6048C74.6147 10.0772 74.547 9.58703 74.404 9.11558C74.2903 8.75009 74.099 8.41213 73.8426 8.12376C73.6092 7.86037 73.3093 7.66123 72.9727 7.5461C72.6007 7.42791 72.2113 7.37022 71.8202 7.37535C71.2174 7.35597 70.6181 7.47284 70.0691 7.71685C69.5989 7.93891 69.2172 8.30682 68.9835 8.76317C68.704 9.33406 68.5315 9.94931 68.4742 10.5797V10.5688ZM71.8202 19.2373C70.5252 19.281 69.2389 19.0154 68.0727 18.4634C67.0758 17.9455 66.2891 17.1114 65.842 16.0983C65.3004 14.8143 65.0469 13.4317 65.0984 12.0438C65.0444 10.651 65.298 9.26322 65.842 7.9748C66.2937 6.9674 67.0795 6.13806 68.0727 5.62058C69.2388 5.06797 70.5248 4.79994 71.8202 4.83947C73.0042 4.79967 74.1789 5.05603 75.2331 5.58425C76.1672 6.09889 76.8976 6.90481 77.3076 7.87307C77.8179 9.14446 78.0557 10.5046 78.0066 11.8694V12.814H68.4221C68.4347 13.55 68.5704 14.2789 68.8237 14.9721C69.0214 15.5167 69.4047 15.9785 69.9092 16.28C70.506 16.596 71.1792 16.748 71.8574 16.7196C72.2461 16.7229 72.6332 16.6703 73.0062 16.5634C73.3487 16.466 73.6675 16.3016 73.943 16.0802C74.2126 15.8604 74.4254 15.5816 74.5639 15.2664C74.7236 14.9028 74.8022 14.5102 74.7944 14.1147H78.0066C78.0237 14.8984 77.8638 15.6762 77.5381 16.3926C77.2388 17.02 76.7886 17.5672 76.2257 17.9875C75.6343 18.409 74.9672 18.7183 74.259 18.8994C73.4653 19.1159 72.6443 19.2223 71.8202 19.2155" fill="black"/>
<path d="M83.4903 10.5651H89.6209C89.6309 10.0735 89.5632 9.58333 89.4202 9.11191C89.3064 8.74641 89.1151 8.40845 88.8588 8.12008C88.6235 7.86201 88.3237 7.66798 87.9888 7.55695C87.6169 7.43851 87.2275 7.38081 86.8363 7.3862C86.2335 7.36683 85.6342 7.4837 85.0852 7.72771C84.6151 7.94977 84.2333 8.31768 83.9996 8.77403C83.7201 9.34492 83.5476 9.96016 83.4903 10.5906V10.5651ZM86.8363 19.2518C85.5413 19.2955 84.255 19.0298 83.0888 18.4779C82.0927 17.9591 81.3062 17.1252 80.8581 16.1128C80.3165 14.8288 80.063 13.4462 80.1146 12.0583C80.0605 10.6655 80.3141 9.27771 80.8581 7.98929C81.311 6.98267 82.0965 6.15368 83.0888 5.63507C84.2559 5.08621 85.5418 4.82194 86.8363 4.86486C88.0203 4.82506 89.195 5.08142 90.2492 5.60963C91.185 6.12227 91.916 6.92883 92.3237 7.89846C92.834 9.16985 93.0718 10.53 93.0227 11.8948V12.8394H83.4382C83.4527 13.5752 83.5883 14.3038 83.8398 14.9975C84.0391 15.5413 84.422 16.0025 84.9254 16.3054C85.5224 16.6113 86.1928 16.7544 86.866 16.7195C87.2547 16.7229 87.6418 16.6703 88.0148 16.5633C88.3606 16.4647 88.682 16.2978 88.9591 16.0728C89.2278 15.8552 89.4405 15.5789 89.58 15.2663C89.7397 14.9028 89.8183 14.5102 89.8105 14.1146H93.0227C93.0417 14.8985 92.8817 15.6767 92.5542 16.3926C92.2561 17.0206 91.8056 17.5681 91.2419 17.9875C90.6504 18.409 89.9833 18.7183 89.2752 18.8994C88.4814 19.1159 87.6604 19.2223 86.8363 19.2154" fill="black"/>
<path d="M102.257 16.4797C102.926 16.5133 103.591 16.3541 104.168 16.0219C104.663 15.6851 105.024 15.1907 105.187 14.6232C105.412 13.8485 105.516 13.045 105.495 12.2399V11.8766C105.516 11.0595 105.412 10.244 105.187 9.45695C105.028 8.88328 104.668 8.38276 104.168 8.04369C103.591 7.7115 102.926 7.55232 102.257 7.58592C101.616 7.55869 100.983 7.73314 100.45 8.08365C99.9522 8.44652 99.5861 8.95582 99.4057 9.53688C99.1643 10.295 99.0513 11.0865 99.0712 11.8802V12.1926C99.0644 12.803 99.1268 13.4122 99.257 14.0092C99.3597 14.4902 99.5553 14.9476 99.8333 15.357C100.082 15.7167 100.423 16.0061 100.822 16.1963C101.272 16.3964 101.763 16.4945 102.257 16.4833V16.4797ZM95.8032 23.437V5.15177H98.5098L98.7774 6.9683H98.9633C99.4034 6.27496 100.035 5.71709 100.785 5.35886C101.561 4.99651 102.412 4.81377 103.272 4.8248C104.317 4.79663 105.349 5.06002 106.246 5.58411C107.127 6.15002 107.801 6.97427 108.172 7.93833C108.673 9.24981 108.906 10.6447 108.856 12.0437C108.903 13.4269 108.667 14.8054 108.161 16.0982C107.816 17.0386 107.176 17.848 106.33 18.41C105.485 18.9721 104.48 19.2579 103.458 19.2263C102.861 19.2308 102.267 19.1599 101.688 19.0155C101.18 18.8892 100.7 18.6724 100.272 18.3761C99.8604 18.0878 99.5064 17.7282 99.2273 17.3153H99.0674V23.437H95.8032Z" fill="black"/>
<path d="M114.195 18.8994L109.99 5.15186H113.366L115.318 12.6323C115.426 13.0174 115.515 13.3953 115.585 13.7731C115.656 14.1509 115.719 14.4634 115.775 14.725C115.831 14.9865 115.864 15.1464 115.879 15.1973H116.043C116.113 14.8848 116.184 14.5433 116.255 14.1764C116.325 13.8094 116.392 13.4752 116.455 13.17C116.519 12.8648 116.56 12.6614 116.578 12.556L118.396 5.15186H121.902L123.805 12.5815C123.875 12.8237 123.942 13.107 124.006 13.4316C124.066 13.7549 124.133 14.071 124.207 14.3871C124.281 14.7032 124.33 14.972 124.367 15.1973H124.527C124.564 14.9866 124.612 14.7359 124.675 14.438C124.739 14.14 124.802 13.8385 124.876 13.5224C124.951 13.2064 125.01 12.923 125.062 12.6614L126.988 5.15186H130.122L125.947 18.8994H122.493L120.887 12.3598C120.818 12.028 120.732 11.6538 120.631 11.2372C120.534 10.8158 120.445 10.398 120.363 9.98019L120.162 8.90844H120.002C119.991 9.12788 119.965 9.34635 119.924 9.56239C119.868 9.87483 119.794 10.2672 119.694 10.7395C119.593 11.2118 119.467 11.7495 119.322 12.3598L117.649 18.8994H114.195Z" fill="black"/>
<path d="M136.413 16.6107C136.901 16.618 137.386 16.538 137.844 16.3746C138.237 16.2345 138.594 16.0111 138.889 15.7206C139.17 15.4267 139.385 15.0791 139.521 14.6997C139.674 14.2801 139.751 13.8374 139.748 13.3918V12.7633C138.838 12.7582 137.93 12.8202 137.03 12.9486C136.329 13.0272 135.656 13.2594 135.06 13.628C134.822 13.781 134.628 13.9916 134.498 14.2391C134.368 14.4867 134.305 14.763 134.316 15.0412C134.31 15.3304 134.389 15.6151 134.543 15.8623C134.712 16.1124 134.956 16.3053 135.242 16.4145C135.612 16.5553 136.008 16.622 136.405 16.6107H136.413ZM135.431 19.2265C134.978 19.2187 134.526 19.1701 134.082 19.0812C133.559 18.984 133.056 18.8023 132.595 18.5435C132.105 18.2673 131.703 17.8652 131.431 17.3809C131.098 16.7562 130.939 16.0572 130.97 15.3537C130.938 14.5282 131.162 13.7125 131.613 13.014C132.069 12.3779 132.694 11.8754 133.42 11.5607C134.304 11.1735 135.243 10.9188 136.205 10.8051C137.38 10.6492 138.565 10.5739 139.751 10.5798V9.45357C139.758 9.08784 139.693 8.72422 139.562 8.38182C139.434 8.06401 139.196 7.80033 138.889 7.63704C138.424 7.42818 137.913 7.33459 137.402 7.36456C136.874 7.34162 136.347 7.42191 135.851 7.60071C135.535 7.70295 135.258 7.89837 135.06 8.1602C134.92 8.37005 134.845 8.61472 134.844 8.86501V9.22832H131.714C131.695 9.14235 131.685 9.0547 131.684 8.96674V8.65429C131.669 7.9111 131.926 7.18717 132.409 6.61251C132.942 6.00231 133.637 5.54628 134.416 5.29371C135.373 4.97241 136.379 4.81748 137.391 4.83595C138.473 4.80058 139.551 4.9785 140.562 5.35911C141.324 5.6562 141.973 6.17653 142.421 6.84866C142.848 7.56144 143.06 8.3774 143.034 9.20289V15.6952C143.021 15.8271 143.041 15.9602 143.092 16.083C143.143 16.2058 143.224 16.3146 143.328 16.4C143.513 16.537 143.739 16.611 143.971 16.6107H144.83V18.7905C144.651 18.8632 144.391 18.9431 144.053 19.0412C143.641 19.1443 143.217 19.192 142.793 19.1829C142.368 19.1903 141.946 19.115 141.551 18.9613C141.194 18.8234 140.877 18.6041 140.625 18.3219C140.371 18.0342 140.188 17.6938 140.09 17.3264H139.93C139.617 17.7014 139.251 18.0316 138.844 18.3073C138.391 18.6117 137.888 18.8378 137.357 18.9758C136.725 19.1416 136.071 19.2211 135.416 19.212" fill="black"/>
<path d="M150.41 19.2262C149.686 19.2657 148.967 19.0869 148.35 18.7139C147.867 18.396 147.498 17.9388 147.294 17.406C147.089 16.8844 146.984 16.3301 146.986 15.7712V7.77843H145.298V5.16263H147.064L147.655 1.31885H150.257V5.15173H152.693V7.76753H150.257V15.4587C150.238 15.7687 150.344 16.0737 150.551 16.3089C150.669 16.4158 150.809 16.4977 150.961 16.5496C151.114 16.6015 151.275 16.6222 151.436 16.6104H152.693V18.7902C152.48 18.8735 152.262 18.9391 152.038 18.9864C151.778 19.0482 151.507 19.1027 151.22 19.1463C150.955 19.1885 150.686 19.2104 150.417 19.2117" fill="black"/>
<path d="M160.958 19.2266C159.692 19.2703 158.436 19.0043 157.303 18.4528C156.326 17.9285 155.561 17.0941 155.136 16.0877C154.604 14.8009 154.35 13.4204 154.392 12.0332C154.344 10.6408 154.597 9.25422 155.136 7.96414C155.578 6.96169 156.352 6.13293 157.333 5.60991C158.457 5.06277 159.703 4.79805 160.958 4.8397C161.809 4.82684 162.658 4.94077 163.474 5.17758C164.172 5.38768 164.816 5.74066 165.363 6.213C165.894 6.68251 166.302 7.26923 166.553 7.92417C166.835 8.68663 166.971 9.49326 166.954 10.3038H163.634C163.654 9.7578 163.554 9.21399 163.341 8.70891C163.155 8.30422 162.841 7.96901 162.445 7.75342C161.968 7.52041 161.438 7.40799 160.906 7.42644C160.272 7.37946 159.642 7.55171 159.125 7.91304C158.609 8.27436 158.239 8.80174 158.08 9.40283C157.836 10.2039 157.723 11.0377 157.745 11.8733V12.2148C157.725 13.0467 157.838 13.8766 158.08 14.6744C158.254 15.2691 158.627 15.7897 159.14 16.1531C159.708 16.4997 160.37 16.6683 161.039 16.6363C161.564 16.6547 162.085 16.5421 162.552 16.3093C162.957 16.0843 163.279 15.7413 163.474 15.3283C163.701 14.8355 163.81 14.2989 163.794 13.7589H166.954C166.967 14.5431 166.831 15.3228 166.553 16.0586C166.301 16.7159 165.898 17.3077 165.374 17.7879C164.833 18.2792 164.19 18.6509 163.489 18.8779C162.671 19.1318 161.816 19.2545 160.958 19.2412" fill="black"/>
<path d="M169.739 18.8992V0.00732422H173.003V6.72849H173.193C173.5 6.35737 173.86 6.03184 174.263 5.76209C174.695 5.47208 175.169 5.24676 175.669 5.09361C176.236 4.92333 176.826 4.83999 177.42 4.84656C178.235 4.83106 179.043 4.99107 179.788 5.31523C180.482 5.63695 181.051 6.16976 181.409 6.83385C181.838 7.70449 182.04 8.66569 181.996 9.6313V18.8992H178.706V10.1799C178.717 9.76755 178.658 9.35628 178.531 8.96282C178.431 8.66375 178.256 8.39394 178.022 8.17808C177.79 7.97265 177.511 7.82443 177.208 7.74574C176.859 7.65531 176.498 7.61132 176.137 7.61495C175.576 7.60819 175.024 7.75276 174.542 8.03276C174.073 8.3135 173.688 8.71091 173.427 9.18444C173.134 9.71248 172.988 10.3062 173.003 10.9065V18.8992H169.739Z" fill="black"/>
<path d="M21.0391 20.1022C15.1799 17.4246 13.6035 9.51911 19.3177 4.95961C18.3703 4.64808 17.3766 4.49217 16.377 4.49822C13.1314 4.49822 7.8261 5.98051 1.08577 13.025L0.803223 13.3193C3.04715 16.7036 6.14776 19.4641 9.80448 21.3331C13.4612 23.2021 17.55 24.1162 21.6746 23.9868C25.7991 23.8574 29.8195 22.6889 33.3461 20.5946C36.8726 18.5003 39.7857 15.5512 41.8029 12.0332C33.1925 21.0323 25.7346 22.2493 21.0391 20.1022Z" fill="#00CC66"/>
<path d="M22.4851 19.1066C23.4333 19.4148 24.4266 19.5695 25.4259 19.5644C28.6715 19.5644 33.9768 18.0857 40.7171 11.0376L40.9996 10.7433C38.7554 7.3591 35.6545 4.59889 31.9976 2.73022C28.3407 0.861551 24.2518 -0.052197 20.1272 0.0775506C16.0027 0.207298 11.9824 1.37614 8.456 3.47078C4.92965 5.56541 2.01686 8.51479 0 12.033C8.62896 3.03393 16.0682 1.82412 20.7638 3.96036C26.623 6.63792 28.1993 14.5471 22.4851 19.1066" fill="#00CC66"/>
</g>
<defs>
<clipPath id="clip0_377_6086">
<rect width="182" height="24" fill="white"/>
</clipPath>
</defs>
</svg>
